<?xml version="1.0" encoding="UTF-8"?>
<svg version="1.1" xmlns="http://www.w3.org/2000/svg" width="3200" height="3200">
<path d="M0 0 C3.91725066 1.65185269 6.89091773 4.30421439 10.0625 7.0625 C11.23110957 8.06587484 12.40039022 9.06846857 13.5703125 10.0703125 C14.15071289 10.56821289 14.73111328 11.06611328 15.32910156 11.57910156 C17.66890123 13.56882016 20.05097953 15.50420597 22.4375 17.4375 C27.30129025 21.39508188 32.05881231 25.46542446 36.80834961 29.55834961 C40.33298919 32.58945289 43.89039882 35.56985316 47.5 38.5 C51.7279248 41.93208013 55.8752789 45.44551171 60 49 C65.01591689 53.32172863 70.09175299 57.55479196 75.23046875 61.73046875 C81.10799411 66.54688939 86.87611914 71.494943 92.66601562 76.41601562 C98.22068034 81.1351961 103.78059925 85.84075049 109.4375 90.4375 C114.30129025 94.39508188 119.05881231 98.46542446 123.80834961 102.55834961 C127.33298919 105.58945289 130.89039882 108.56985316 134.5 111.5 C139.34596789 115.4337857 144.08098528 119.48447759 148.80859375 123.55859375 C152.33317903 126.58958284 155.89048832 129.56992581 159.5 132.5 C163.7279248 135.93208013 167.8752789 139.44551171 172 143 C177.01591689 147.32172863 182.09175299 151.55479196 187.23046875 155.73046875 C193.10799411 160.54688939 198.87611914 165.494943 204.66601562 170.41601562 C210.22068034 175.1351961 215.78059925 179.84075049 221.4375 184.4375 C226.30129025 188.39508188 231.05881231 192.46542446 235.80834961 196.55834961 C239.33298919 199.58945289 242.89039882 202.56985316 246.5 205.5 C250.7279248 208.93208013 254.8752789 212.44551171 259 216 C264.01591689 220.32172863 269.09175299 224.55479196 274.23046875 228.73046875 C277.30420825 231.24928772 280.34379028 233.80530651 283.375 236.375 C283.91181396 236.83003906 284.44862793 237.28507812 285.00170898 237.75390625 C287.26790172 239.67677737 289.53234743 241.60168112 291.79492188 243.52880859 C292.99379404 244.54991473 294.19316663 245.57043364 295.39306641 246.59033203 C296.52153481 247.54954608 297.64887176 248.51009331 298.77490234 249.47216797 C301.12119341 251.46558872 303.43393632 253.28929088 306 255 C304.48133302 258.39743025 302.49720998 261.01618284 300.125 263.875 C298.92230469 265.32519531 298.92230469 265.32519531 297.6953125 266.8046875 C294.31114664 270.83202074 290.87924398 274.8184236 287.44604492 278.80395508 C283.64706645 283.22130168 279.94385178 287.70873735 276.26953125 292.23046875 C271.45311061 298.10799411 266.505057 303.87611914 261.58398438 309.66601562 C256.8648039 315.22068034 252.15924951 320.78059925 247.5625 326.4375 C243.60491812 331.30129025 239.53457554 336.05881231 235.44165039 340.80834961 C232.41054711 344.33298919 229.43014684 347.89039882 226.5 351.5 C223.06791987 355.7279248 219.55448829 359.8752789 216 364 C211.67827137 369.01591689 207.44520804 374.09175299 203.26953125 379.23046875 C198.45311061 385.10799411 193.505057 390.87611914 188.58398438 396.66601562 C183.8648039 402.22068034 179.15924951 407.78059925 174.5625 413.4375 C170.60491812 418.30129025 166.53457554 423.05881231 162.44165039 427.80834961 C159.41054711 431.33298919 156.43014684 434.89039882 153.5 438.5 C150.06791987 442.7279248 146.55448829 446.8752789 143 451 C138.67827137 456.01591689 134.44520804 461.09175299 130.26953125 466.23046875 C125.45311061 472.10799411 120.505057 477.87611914 115.58398438 483.66601562 C110.8648039 489.22068034 106.15924951 494.78059925 101.5625 500.4375 C97.60491812 505.30129025 93.53457554 510.05881231 89.44165039 514.80834961 C86.41054711 518.33298919 83.43014684 521.89039882 80.5 525.5 C77.06791987 529.7279248 73.55448829 533.8752789 70 538 C65.67827137 543.01591689 61.44520804 548.09175299 57.26953125 553.23046875 C52.45311061 559.10799411 47.505057 564.87611914 42.58398438 570.66601562 C37.8648039 576.22068034 33.15924951 581.78059925 28.5625 587.4375 C24.60491812 592.30129025 20.53457554 597.05881231 16.44165039 601.80834961 C13.41054711 605.33298919 10.43014684 608.89039882 7.5 612.5 C4.06791987 616.7279248 0.55448829 620.8752789 -3 625 C-7.32172863 630.01591689 -11.55479196 635.09175299 -15.73046875 640.23046875 C-20.54688939 646.10799411 -25.494943 651.87611914 -30.41601562 657.66601562 C-35.1351961 663.22068034 -39.84075049 668.78059925 -44.4375 674.4375 C-48.39508188 679.30129025 -52.46542446 684.05881231 -56.55834961 688.80834961 C-59.58945289 692.33298919 -62.56985316 695.89039882 -65.5 699.5 C-68.93208013 703.7279248 -72.44551171 707.8752789 -76 712 C-80.32172863 717.01591689 -84.55479196 722.09175299 -88.73046875 727.23046875 C-93.54688939 733.10799411 -98.494943 738.87611914 -103.41601562 744.66601562 C-108.1351961 750.22068034 -112.84075049 755.78059925 -117.4375 761.4375 C-121.39508188 766.30129025 -125.46542446 771.05881231 -129.55834961 775.80834961 C-132.58945289 779.33298919 -135.56985316 782.89039882 -138.5 786.5 C-141.93208013 790.7279248 -145.44551171 794.8752789 -149 799 C-153.32172863 804.01591689 -157.55479196 809.09175299 -161.73046875 814.23046875 C-166.54688939 820.10799411 -171.494943 825.87611914 -176.41601562 831.66601562 C-181.1351961 837.22068034 -185.84075049 842.78059925 -190.4375 848.4375 C-194.39508188 853.30129025 -198.46542446 858.05881231 -202.55834961 862.80834961 C-205.58945289 866.33298919 -208.56985316 869.89039882 -211.5 873.5 C-214.93208013 877.7279248 -218.44551171 881.8752789 -222 886 C-226.32172863 891.01591689 -230.55479196 896.09175299 -234.73046875 901.23046875 C-239.54688939 907.10799411 -244.494943 912.87611914 -249.41601562 918.66601562 C-254.1351961 924.22068034 -258.84075049 929.78059925 -263.4375 935.4375 C-267.39508188 940.30129025 -271.46542446 945.05881231 -275.55834961 949.80834961 C-278.58945289 953.33298919 -281.56985316 956.89039882 -284.5 960.5 C-287.93208013 964.7279248 -291.44551171 968.8752789 -295 973 C-299.32172863 978.01591689 -303.55479196 983.09175299 -307.73046875 988.23046875 C-312.54688939 994.10799411 -317.494943 999.87611914 -322.41601562 1005.66601562 C-327.1351961 1011.22068034 -331.84075049 1016.78059925 -336.4375 1022.4375 C-340.39508188 1027.30129025 -344.46542446 1032.05881231 -348.55834961 1036.80834961 C-351.58945289 1040.33298919 -354.56985316 1043.89039882 -357.5 1047.5 C-360.93208013 1051.7279248 -364.44551171 1055.8752789 -368 1060 C-372.31866543 1065.01236164 -376.5479662 1070.08531558 -380.72265625 1075.21875 C-387.92417282 1084.01374108 -395.33388655 1092.60625544 -403 1101 C-404.29550781 1102.43472656 -404.29550781 1102.43472656 -405.6171875 1103.8984375 C-413.56110677 1112.6717683 -421.66161464 1121.34415601 -430.6875 1129.0234375 C-432.52183354 1130.59129691 -434.32711383 1132.18014655 -436.125 1133.7890625 C-510.92104729 1200.32167069 -610.61558467 1236.18467362 -710.3125 1236.25 C-711.71571503 1236.25101212 -711.71571503 1236.25101212 -713.14727783 1236.25204468 C-741.1847707 1236.22023996 -768.48610341 1233.55569066 -796 1228 C-797.09183594 1227.77973145 -798.18367188 1227.55946289 -799.30859375 1227.33251953 C-873.90656174 1211.91814349 -937.18235571 1175.4417258 -994.66601562 1126.58398438 C-1000.22068034 1121.8648039 -1005.78059925 1117.15924951 -1011.4375 1112.5625 C-1016.30049424 1108.60556582 -1021.05700203 1104.53564058 -1025.80615234 1100.44384766 C-1030.22308718 1096.64598499 -1034.70953997 1092.94319959 -1039.23046875 1089.26953125 C-1045.10799411 1084.45311061 -1050.87611914 1079.505057 -1056.66601562 1074.58398438 C-1062.22068034 1069.8648039 -1067.78059925 1065.15924951 -1073.4375 1060.5625 C-1078.30129025 1056.60491812 -1083.05881231 1052.53457554 -1087.80834961 1048.44165039 C-1091.33298919 1045.41054711 -1094.89039882 1042.43014684 -1098.5 1039.5 C-1103.34596789 1035.5662143 -1108.08098528 1031.51552241 -1112.80859375 1027.44140625 C-1116.33317903 1024.41041716 -1119.89048832 1021.43007419 -1123.5 1018.5 C-1127.7279248 1015.06791987 -1131.8752789 1011.55448829 -1136 1008 C-1141.01591689 1003.67827137 -1146.09175299 999.44520804 -1151.23046875 995.26953125 C-1157.10799411 990.45311061 -1162.87611914 985.505057 -1168.66601562 980.58398438 C-1174.22068034 975.8648039 -1179.78059925 971.15924951 -1185.4375 966.5625 C-1190.30129025 962.60491812 -1195.05881231 958.53457554 -1199.80834961 954.44165039 C-1203.33298919 951.41054711 -1206.89039882 948.43014684 -1210.5 945.5 C-1214.7279248 942.06791987 -1218.8752789 938.55448829 -1223 935 C-1228.01453237 930.67946427 -1233.08856487 926.44711886 -1238.2265625 922.2734375 C-1241.87453579 919.283127 -1245.46995027 916.23320584 -1249.06542969 913.18017578 C-1254.67907674 908.41580727 -1260.33616473 903.70455507 -1266 899 C-1264.34814731 895.08274934 -1261.69578561 892.10908227 -1258.9375 888.9375 C-1257.93412516 887.76889043 -1256.93153143 886.59960978 -1255.9296875 885.4296875 C-1255.43178711 884.84928711 -1254.93388672 884.26888672 -1254.42089844 883.67089844 C-1252.43117984 881.33109877 -1250.49579403 878.94902047 -1248.5625 876.5625 C-1244.60491812 871.69870975 -1240.53457554 866.94118769 -1236.44165039 862.19165039 C-1233.41054711 858.66701081 -1230.43014684 855.10960118 -1227.5 851.5 C-1223.5662143 846.65403211 -1219.51552241 841.91901472 -1215.44140625 837.19140625 C-1212.41041716 833.66682097 -1209.43007419 830.10951168 -1206.5 826.5 C-1202.5662143 821.65403211 -1198.51552241 816.91901472 -1194.44140625 812.19140625 C-1191.41041716 808.66682097 -1188.43007419 805.10951168 -1185.5 801.5 C-1182.06791987 797.2720752 -1178.55448829 793.1247211 -1175 789 C-1170.67827137 783.98408311 -1166.44520804 778.90824701 -1162.26953125 773.76953125 C-1157.45311061 767.89200589 -1152.505057 762.12388086 -1147.58398438 756.33398438 C-1142.8648039 750.77931966 -1138.15924951 745.21940075 -1133.5625 739.5625 C-1129.60491812 734.69870975 -1125.53457554 729.94118769 -1121.44165039 725.19165039 C-1118.41054711 721.66701081 -1115.43014684 718.10960118 -1112.5 714.5 C-1109.06791987 710.2720752 -1105.55448829 706.1247211 -1102 702 C-1097.67827137 696.98408311 -1093.44520804 691.90824701 -1089.26953125 686.76953125 C-1084.45311061 680.89200589 -1079.505057 675.12388086 -1074.58398438 669.33398438 C-1069.8648039 663.77931966 -1065.15924951 658.21940075 -1060.5625 652.5625 C-1056.60491812 647.69870975 -1052.53457554 642.94118769 -1048.44165039 638.19165039 C-1045.41054711 634.66701081 -1042.43014684 631.10960118 -1039.5 627.5 C-1036.06791694 623.27207159 -1032.55441203 619.12479062 -1029 615 C-1022.81678619 607.82107589 -1016.63673929 600.621012 -1011 593 C-1006.96194134 594.36266644 -1004.45631882 596.1409151 -1001.375 599.0625 C-997.01649521 603.09910636 -992.52494613 606.88643605 -987.91015625 610.625 C-984.78570211 613.17489009 -981.70027196 615.76623544 -978.625 618.375 C-978.08270752 618.83487305 -977.54041504 619.29474609 -976.98168945 619.76855469 C-974.76483383 621.64991983 -972.54944292 623.53300572 -970.33398438 625.41601562 C-964.77931966 630.1351961 -959.21940075 634.84075049 -953.5625 639.4375 C-948.69870975 643.39508188 -943.94118769 647.46542446 -939.19165039 651.55834961 C-935.66701081 654.58945289 -932.10960118 657.56985316 -928.5 660.5 C-924.2720752 663.93208013 -920.1247211 667.44551171 -916 671 C-910.98408311 675.32172863 -905.90824701 679.55479196 -900.76953125 683.73046875 C-894.89200589 688.54688939 -889.12388086 693.494943 -883.33398438 698.41601562 C-877.77931966 703.1351961 -872.21940075 707.84075049 -866.5625 712.4375 C-861.69870975 716.39508188 -856.94118769 720.46542446 -852.19165039 724.55834961 C-848.66701081 727.58945289 -845.10960118 730.56985316 -841.5 733.5 C-837.2720752 736.93208013 -833.1247211 740.44551171 -829 744 C-823.98408311 748.32172863 -818.90824701 752.55479196 -813.76953125 756.73046875 C-807.89200589 761.54688939 -802.12388086 766.494943 -796.33398438 771.41601562 C-790.77931966 776.1351961 -785.21940075 780.84075049 -779.5625 785.4375 C-774.69870975 789.39508188 -769.94118769 793.46542446 -765.19165039 797.55834961 C-761.66701081 800.58945289 -758.10960118 803.56985316 -754.5 806.5 C-750.27205014 809.93210047 -746.12523779 813.44608619 -742 817 C-733.12334792 824.64916123 -733.12334792 824.64916123 -724 832 C-723.39027344 832.47566406 -722.78054688 832.95132813 -722.15234375 833.44140625 C-717.24728817 836.76942268 -711.69276777 836.89885807 -706 836 C-701.07526947 834.06208656 -698.17942438 831.43164819 -694.6875 827.5 C-694.2123999 826.96810059 -693.7372998 826.43620117 -693.24780273 825.88818359 C-689.50317507 821.66286481 -685.92029256 817.31070311 -682.37890625 812.9140625 C-679.64094958 809.56017798 -676.82783535 806.2780711 -674 803 C-670.44524127 798.87552198 -666.93207058 794.72791303 -663.5 790.5 C-660.06791987 786.2720752 -656.55448829 782.1247211 -653 778 C-648.67827137 772.98408311 -644.44520804 767.90824701 -640.26953125 762.76953125 C-635.45311061 756.89200589 -630.505057 751.12388086 -625.58398438 745.33398438 C-620.8648039 739.77931966 -616.15924951 734.21940075 -611.5625 728.5625 C-607.60491812 723.69870975 -603.53457554 718.94118769 -599.44165039 714.19165039 C-596.41054711 710.66701081 -593.43014684 707.10960118 -590.5 703.5 C-587.06791987 699.2720752 -583.55448829 695.1247211 -580 691 C-575.67827137 685.98408311 -571.44520804 680.90824701 -567.26953125 675.76953125 C-562.45311061 669.89200589 -557.505057 664.12388086 -552.58398438 658.33398438 C-547.8648039 652.77931966 -543.15924951 647.21940075 -538.5625 641.5625 C-534.60491812 636.69870975 -530.53457554 631.94118769 -526.44165039 627.19165039 C-523.41054711 623.66701081 -520.43014684 620.10960118 -517.5 616.5 C-514.06791987 612.2720752 -510.55448829 608.1247211 -507 604 C-502.67827137 598.98408311 -498.44520804 593.90824701 -494.26953125 588.76953125 C-489.45311061 582.89200589 -484.505057 577.12388086 -479.58398438 571.33398438 C-474.8648039 565.77931966 -470.15924951 560.21940075 -465.5625 554.5625 C-461.60491812 549.69870975 -457.53457554 544.94118769 -453.44165039 540.19165039 C-450.41054711 536.66701081 -447.43014684 533.10960118 -444.5 529.5 C-441.06791987 525.2720752 -437.55448829 521.1247211 -434 517 C-429.67827137 511.98408311 -425.44520804 506.90824701 -421.26953125 501.76953125 C-416.45311061 495.89200589 -411.505057 490.12388086 -406.58398438 484.33398438 C-401.8648039 478.77931966 -397.15924951 473.21940075 -392.5625 467.5625 C-388.60491812 462.69870975 -384.53457554 457.94118769 -380.44165039 453.19165039 C-377.41054711 449.66701081 -374.43014684 446.10960118 -371.5 442.5 C-367.5662143 437.65403211 -363.51552241 432.91901472 -359.44140625 428.19140625 C-356.41041716 424.66682097 -353.43007419 421.10951168 -350.5 417.5 C-347.06791987 413.2720752 -343.55448829 409.1247211 -340 405 C-335.67827137 399.98408311 -331.44520804 394.90824701 -327.26953125 389.76953125 C-322.45311061 383.89200589 -317.505057 378.12388086 -312.58398438 372.33398438 C-307.8648039 366.77931966 -303.15924951 361.21940075 -298.5625 355.5625 C-294.60491812 350.69870975 -290.53457554 345.94118769 -286.44165039 341.19165039 C-283.41054711 337.66701081 -280.43014684 334.10960118 -277.5 330.5 C-274.06791987 326.2720752 -270.55448829 322.1247211 -267 318 C-262.67827137 312.98408311 -258.44520804 307.90824701 -254.26953125 302.76953125 C-249.45311061 296.89200589 -244.505057 291.12388086 -239.58398438 285.33398438 C-234.8648039 279.77931966 -230.15924951 274.21940075 -225.5625 268.5625 C-221.60491812 263.69870975 -217.53457554 258.94118769 -213.44165039 254.19165039 C-210.41054711 250.66701081 -207.43014684 247.10960118 -204.5 243.5 C-201.06791987 239.2720752 -197.55448829 235.1247211 -194 231 C-189.67827137 225.98408311 -185.44520804 220.90824701 -181.26953125 215.76953125 C-176.45311061 209.89200589 -171.505057 204.12388086 -166.58398438 198.33398438 C-161.8648039 192.77931966 -157.15924951 187.21940075 -152.5625 181.5625 C-148.60491812 176.69870975 -144.53457554 171.94118769 -140.44165039 167.19165039 C-137.41054711 163.66701081 -134.43014684 160.10960118 -131.5 156.5 C-128.06791987 152.2720752 -124.55448829 148.1247211 -121 144 C-116.67827137 138.98408311 -112.44520804 133.90824701 -108.26953125 128.76953125 C-103.45311061 122.89200589 -98.505057 117.12388086 -93.58398438 111.33398438 C-88.8648039 105.77931966 -84.15924951 100.21940075 -79.5625 94.5625 C-75.60491812 89.69870975 -71.53457554 84.94118769 -67.44165039 80.19165039 C-64.41054711 76.66701081 -61.43014684 73.10960118 -58.5 69.5 C-55.06791987 65.2720752 -51.55448829 61.1247211 -48 57 C-43.67827137 51.98408311 -39.44520804 46.90824701 -35.26953125 41.76953125 C-30.45311061 35.89200589 -25.505057 30.12388086 -20.58398438 24.33398438 C-19.1801919 22.68166432 -17.77725118 21.02862826 -16.375 19.375 C-15.69667114 18.57509644 -15.69667114 18.57509644 -15.00463867 17.7590332 C-11.20507498 13.26664421 -7.47981625 8.71738607 -3.77734375 4.14453125 C-2 2 -2 2 0 0 Z " fill="#97DB1A" transform="translate(2413,1914)"/>
<path d="M0 0 C0.93547668 -0.00067474 1.87095337 -0.00134949 2.83477783 -0.00204468 C30.8722707 0.02976004 58.17360341 2.69430934 85.6875 8.25 C86.77933594 8.47026855 87.87117188 8.69053711 88.99609375 8.91748047 C163.59406174 24.33185651 226.86985571 60.8082742 284.35351562 109.66601562 C289.90818034 114.3851961 295.46809925 119.09075049 301.125 123.6875 C305.98799424 127.64443418 310.74450203 131.71435942 315.49365234 135.80615234 C319.91058718 139.60401501 324.39703997 143.30680041 328.91796875 146.98046875 C334.79549411 151.79688939 340.56361914 156.744943 346.35351562 161.66601562 C351.90818034 166.3851961 357.46809925 171.09075049 363.125 175.6875 C367.98879025 179.64508188 372.74631231 183.71542446 377.49584961 187.80834961 C381.02048919 190.83945289 384.57789882 193.81985316 388.1875 196.75 C392.4154248 200.18208013 396.5627789 203.69551171 400.6875 207.25 C405.70341689 211.57172863 410.77925299 215.80479196 415.91796875 219.98046875 C421.79549411 224.79688939 427.56361914 229.744943 433.35351562 234.66601562 C438.90818034 239.3851961 444.46809925 244.09075049 450.125 248.6875 C454.98879025 252.64508188 459.74631231 256.71542446 464.49584961 260.80834961 C468.02048919 263.83945289 471.57789882 266.81985316 475.1875 269.75 C480.03346789 273.6837857 484.76848528 277.73447759 489.49609375 281.80859375 C493.02067903 284.83958284 496.57798832 287.81992581 500.1875 290.75 C504.4154248 294.18208013 508.5627789 297.69551171 512.6875 301.25 C517.70203237 305.57053573 522.77606487 309.80288114 527.9140625 313.9765625 C531.56203579 316.966873 535.15745027 320.01679416 538.75292969 323.06982422 C544.36657674 327.83419273 550.02366473 332.54544493 555.6875 337.25 C554.03564731 341.16725066 551.38328561 344.14091773 548.625 347.3125 C547.62162516 348.48110957 546.61903143 349.65039022 545.6171875 350.8203125 C545.11928711 351.40071289 544.62138672 351.98111328 544.10839844 352.57910156 C542.11867984 354.91890123 540.18329403 357.30097953 538.25 359.6875 C534.29241812 364.55129025 530.22207554 369.30881231 526.12915039 374.05834961 C523.09804711 377.58298919 520.11764684 381.14039882 517.1875 384.75 C513.2537143 389.59596789 509.20302241 394.33098528 505.12890625 399.05859375 C502.09791716 402.58317903 499.11757419 406.14048832 496.1875 409.75 C492.2537143 414.59596789 488.20302241 419.33098528 484.12890625 424.05859375 C481.09791716 427.58317903 478.11757419 431.14048832 475.1875 434.75 C471.75541987 438.9779248 468.24198829 443.1252789 464.6875 447.25 C460.36577137 452.26591689 456.13270804 457.34175299 451.95703125 462.48046875 C447.14061061 468.35799411 442.192557 474.12611914 437.27148438 479.91601562 C432.5523039 485.47068034 427.84674951 491.03059925 423.25 496.6875 C419.29241812 501.55129025 415.22207554 506.30881231 411.12915039 511.05834961 C408.09804711 514.58298919 405.11764684 518.14039882 402.1875 521.75 C398.75541987 525.9779248 395.24198829 530.1252789 391.6875 534.25 C387.36577137 539.26591689 383.13270804 544.34175299 378.95703125 549.48046875 C374.14061061 555.35799411 369.192557 561.12611914 364.27148438 566.91601562 C359.5523039 572.47068034 354.84674951 578.03059925 350.25 583.6875 C346.29241812 588.55129025 342.22207554 593.30881231 338.12915039 598.05834961 C335.09804711 601.58298919 332.11764684 605.14039882 329.1875 608.75 C325.75541694 612.97792841 322.24191203 617.12520938 318.6875 621.25 C312.50428619 628.42892411 306.32423929 635.628988 300.6875 643.25 C296.64944134 641.88733356 294.14381882 640.1090849 291.0625 637.1875 C286.70399521 633.15089364 282.21244613 629.36356395 277.59765625 625.625 C274.47320211 623.07510991 271.38777196 620.48376456 268.3125 617.875 C267.77020752 617.41512695 267.22791504 616.95525391 266.66918945 616.48144531 C264.45233383 614.60008017 262.23694292 612.71699428 260.02148438 610.83398438 C254.46681966 606.1148039 248.90690075 601.40924951 243.25 596.8125 C238.38620975 592.85491812 233.62868769 588.78457554 228.87915039 584.69165039 C225.35451081 581.66054711 221.79710118 578.68014684 218.1875 575.75 C213.9595752 572.31791987 209.8122211 568.80448829 205.6875 565.25 C200.67158311 560.92827137 195.59574701 556.69520804 190.45703125 552.51953125 C184.57950589 547.70311061 178.81138086 542.755057 173.02148438 537.83398438 C167.46681966 533.1148039 161.90690075 528.40924951 156.25 523.8125 C151.38620975 519.85491812 146.62868769 515.78457554 141.87915039 511.69165039 C138.35451081 508.66054711 134.79710118 505.68014684 131.1875 502.75 C126.9595752 499.31791987 122.8122211 495.80448829 118.6875 492.25 C113.67158311 487.92827137 108.59574701 483.69520804 103.45703125 479.51953125 C97.57950589 474.70311061 91.81138086 469.755057 86.02148438 464.83398438 C80.46681966 460.1148039 74.90690075 455.40924951 69.25 450.8125 C64.38620975 446.85491812 59.62868769 442.78457554 54.87915039 438.69165039 C51.35451081 435.66054711 47.79710118 432.68014684 44.1875 429.75 C39.95955014 426.31789953 35.81273779 422.80391381 31.6875 419.25 C22.81084792 411.60083877 22.81084792 411.60083877 13.6875 404.25 C13.07777344 403.77433594 12.46804688 403.29867188 11.83984375 402.80859375 C6.93478817 399.48057732 1.38026777 399.35114193 -4.3125 400.25 C-9.23723053 402.18791344 -12.13307562 404.81835181 -15.625 408.75 C-16.1001001 409.28189941 -16.5752002 409.81379883 -17.06469727 410.36181641 C-20.80932493 414.58713519 -24.39220744 418.93929689 -27.93359375 423.3359375 C-30.67155042 426.68982202 -33.48466465 429.9719289 -36.3125 433.25 C-39.86725873 437.37447802 -43.38042942 441.52208697 -46.8125 445.75 C-50.24458013 449.9779248 -53.75801171 454.1252789 -57.3125 458.25 C-61.63422863 463.26591689 -65.86729196 468.34175299 -70.04296875 473.48046875 C-74.85938939 479.35799411 -79.807443 485.12611914 -84.72851562 490.91601562 C-89.4476961 496.47068034 -94.15325049 502.03059925 -98.75 507.6875 C-102.70758188 512.55129025 -106.77792446 517.30881231 -110.87084961 522.05834961 C-113.90195289 525.58298919 -116.88235316 529.14039882 -119.8125 532.75 C-123.24458013 536.9779248 -126.75801171 541.1252789 -130.3125 545.25 C-134.63422863 550.26591689 -138.86729196 555.34175299 -143.04296875 560.48046875 C-147.85938939 566.35799411 -152.807443 572.12611914 -157.72851562 577.91601562 C-162.4476961 583.47068034 -167.15325049 589.03059925 -171.75 594.6875 C-175.70758188 599.55129025 -179.77792446 604.30881231 -183.87084961 609.05834961 C-186.90195289 612.58298919 -189.88235316 616.14039882 -192.8125 619.75 C-196.24458013 623.9779248 -199.75801171 628.1252789 -203.3125 632.25 C-207.63422863 637.26591689 -211.86729196 642.34175299 -216.04296875 647.48046875 C-220.85938939 653.35799411 -225.807443 659.12611914 -230.72851562 664.91601562 C-235.4476961 670.47068034 -240.15325049 676.03059925 -244.75 681.6875 C-248.70758188 686.55129025 -252.77792446 691.30881231 -256.87084961 696.05834961 C-259.90195289 699.58298919 -262.88235316 703.14039882 -265.8125 706.75 C-269.24458013 710.9779248 -272.75801171 715.1252789 -276.3125 719.25 C-280.63422863 724.26591689 -284.86729196 729.34175299 -289.04296875 734.48046875 C-293.85938939 740.35799411 -298.807443 746.12611914 -303.72851562 751.91601562 C-308.4476961 757.47068034 -313.15325049 763.03059925 -317.75 768.6875 C-321.70758188 773.55129025 -325.77792446 778.30881231 -329.87084961 783.05834961 C-332.90195289 786.58298919 -335.88235316 790.14039882 -338.8125 793.75 C-342.24458013 797.9779248 -345.75801171 802.1252789 -349.3125 806.25 C-353.63422863 811.26591689 -357.86729196 816.34175299 -362.04296875 821.48046875 C-366.85938939 827.35799411 -371.807443 833.12611914 -376.72851562 838.91601562 C-381.4476961 844.47068034 -386.15325049 850.03059925 -390.75 855.6875 C-394.70758188 860.55129025 -398.77792446 865.30881231 -402.87084961 870.05834961 C-405.90195289 873.58298919 -408.88235316 877.14039882 -411.8125 880.75 C-415.24458013 884.9779248 -418.75801171 889.1252789 -422.3125 893.25 C-426.63422863 898.26591689 -430.86729196 903.34175299 -435.04296875 908.48046875 C-439.85938939 914.35799411 -444.807443 920.12611914 -449.72851562 925.91601562 C-454.4476961 931.47068034 -459.15325049 937.03059925 -463.75 942.6875 C-467.70758188 947.55129025 -471.77792446 952.30881231 -475.87084961 957.05834961 C-478.90195289 960.58298919 -481.88235316 964.14039882 -484.8125 967.75 C-488.7462857 972.59596789 -492.79697759 977.33098528 -496.87109375 982.05859375 C-499.90208284 985.58317903 -502.88242581 989.14048832 -505.8125 992.75 C-509.24458013 996.9779248 -512.75801171 1001.1252789 -516.3125 1005.25 C-520.63422863 1010.26591689 -524.86729196 1015.34175299 -529.04296875 1020.48046875 C-533.85938939 1026.35799411 -538.807443 1032.12611914 -543.72851562 1037.91601562 C-548.4476961 1043.47068034 -553.15325049 1049.03059925 -557.75 1054.6875 C-561.70758188 1059.55129025 -565.77792446 1064.30881231 -569.87084961 1069.05834961 C-572.90195289 1072.58298919 -575.88235316 1076.14039882 -578.8125 1079.75 C-582.24458013 1083.9779248 -585.75801171 1088.1252789 -589.3125 1092.25 C-593.63422863 1097.26591689 -597.86729196 1102.34175299 -602.04296875 1107.48046875 C-606.85938939 1113.35799411 -611.807443 1119.12611914 -616.72851562 1124.91601562 C-621.4476961 1130.47068034 -626.15325049 1136.03059925 -630.75 1141.6875 C-634.70758188 1146.55129025 -638.77792446 1151.30881231 -642.87084961 1156.05834961 C-645.90195289 1159.58298919 -648.88235316 1163.14039882 -651.8125 1166.75 C-655.24458013 1170.9779248 -658.75801171 1175.1252789 -662.3125 1179.25 C-666.63422863 1184.26591689 -670.86729196 1189.34175299 -675.04296875 1194.48046875 C-679.85938939 1200.35799411 -684.807443 1206.12611914 -689.72851562 1211.91601562 C-691.13230779 1213.5683353 -692.53496307 1215.2216148 -693.9375 1216.875 C-694.39116943 1217.40826904 -694.84483887 1217.94153809 -695.31225586 1218.4909668 C-697.53461419 1221.11193289 -699.72596169 1223.75048861 -701.86328125 1226.44140625 C-702.65089844 1227.43011719 -703.43851563 1228.41882812 -704.25 1229.4375 C-704.93964844 1230.31792969 -705.62929688 1231.19835938 -706.33984375 1232.10546875 C-708.28857095 1234.22398604 -709.74515409 1235.06535372 -712.3125 1236.25 C-713.74529297 1234.99896484 -713.74529297 1234.99896484 -715.20703125 1233.72265625 C-721.89342277 1227.89801611 -728.61180464 1222.13986474 -735.50390625 1216.55859375 C-738.8154848 1213.83655909 -742.06563059 1211.04860269 -745.3125 1208.25 C-749.437143 1204.69542508 -753.58457904 1201.18207702 -757.8125 1197.75 C-762.0404248 1194.31791987 -766.1877789 1190.80448829 -770.3125 1187.25 C-775.32841689 1182.92827137 -780.40425299 1178.69520804 -785.54296875 1174.51953125 C-791.42049411 1169.70311061 -797.18861914 1164.755057 -802.97851562 1159.83398438 C-808.53318034 1155.1148039 -814.09309925 1150.40924951 -819.75 1145.8125 C-824.61379025 1141.85491812 -829.37131231 1137.78457554 -834.12084961 1133.69165039 C-837.64548919 1130.66054711 -841.20289882 1127.68014684 -844.8125 1124.75 C-849.65846789 1120.8162143 -854.39348528 1116.76552241 -859.12109375 1112.69140625 C-862.64567903 1109.66041716 -866.20298832 1106.68007419 -869.8125 1103.75 C-874.0404248 1100.31791987 -878.1877789 1096.80448829 -882.3125 1093.25 C-887.32841689 1088.92827137 -892.40425299 1084.69520804 -897.54296875 1080.51953125 C-903.42049411 1075.70311061 -909.18861914 1070.755057 -914.97851562 1065.83398438 C-920.53318034 1061.1148039 -926.09309925 1056.40924951 -931.75 1051.8125 C-936.61379025 1047.85491812 -941.37131231 1043.78457554 -946.12084961 1039.69165039 C-949.64548919 1036.66054711 -953.20289882 1033.68014684 -956.8125 1030.75 C-961.0404248 1027.31791987 -965.1877789 1023.80448829 -969.3125 1020.25 C-974.32841689 1015.92827137 -979.40425299 1011.69520804 -984.54296875 1007.51953125 C-987.61670825 1005.00071228 -990.65629028 1002.44469349 -993.6875 999.875 C-994.22431396 999.41996094 -994.76112793 998.96492188 -995.31420898 998.49609375 C-997.58040172 996.57322263 -999.84484743 994.64831888 -1002.10742188 992.72119141 C-1003.30629404 991.70008527 -1004.50566663 990.67956636 -1005.70556641 989.65966797 C-1006.83403481 988.70045392 -1007.96137176 987.73990669 -1009.08740234 986.77783203 C-1011.43369341 984.78441128 -1013.74643632 982.96070912 -1016.3125 981.25 C-1014.79383302 977.85256975 -1012.80970998 975.23381716 -1010.4375 972.375 C-1009.63570312 971.40820312 -1008.83390625 970.44140625 -1008.0078125 969.4453125 C-1004.62364664 965.41797926 -1001.19174398 961.4315764 -997.75854492 957.44604492 C-993.95956645 953.02869832 -990.25635178 948.54126265 -986.58203125 944.01953125 C-981.76561061 938.14200589 -976.817557 932.37388086 -971.89648438 926.58398438 C-967.1773039 921.02931966 -962.47174951 915.46940075 -957.875 909.8125 C-953.91741812 904.94870975 -949.84707554 900.19118769 -945.75415039 895.44165039 C-942.72304711 891.91701081 -939.74264684 888.35960118 -936.8125 884.75 C-933.38041987 880.5220752 -929.86698829 876.3747211 -926.3125 872.25 C-921.99077137 867.23408311 -917.75770804 862.15824701 -913.58203125 857.01953125 C-908.76561061 851.14200589 -903.817557 845.37388086 -898.89648438 839.58398438 C-894.1773039 834.02931966 -889.47174951 828.46940075 -884.875 822.8125 C-880.91741812 817.94870975 -876.84707554 813.19118769 -872.75415039 808.44165039 C-869.72304711 804.91701081 -866.74264684 801.35960118 -863.8125 797.75 C-860.38041987 793.5220752 -856.86698829 789.3747211 -853.3125 785.25 C-848.99077137 780.23408311 -844.75770804 775.15824701 -840.58203125 770.01953125 C-835.76561061 764.14200589 -830.817557 758.37388086 -825.89648438 752.58398438 C-821.1773039 747.02931966 -816.47174951 741.46940075 -811.875 735.8125 C-807.91741812 730.94870975 -803.84707554 726.19118769 -799.75415039 721.44165039 C-796.72304711 717.91701081 -793.74264684 714.35960118 -790.8125 710.75 C-787.38041987 706.5220752 -783.86698829 702.3747211 -780.3125 698.25 C-775.99077137 693.23408311 -771.75770804 688.15824701 -767.58203125 683.01953125 C-762.76561061 677.14200589 -757.817557 671.37388086 -752.89648438 665.58398438 C-748.1773039 660.02931966 -743.47174951 654.46940075 -738.875 648.8125 C-734.91741812 643.94870975 -730.84707554 639.19118769 -726.75415039 634.44165039 C-723.72304711 630.91701081 -720.74264684 627.35960118 -717.8125 623.75 C-714.38041987 619.5220752 -710.86698829 615.3747211 -707.3125 611.25 C-702.99077137 606.23408311 -698.75770804 601.15824701 -694.58203125 596.01953125 C-689.76561061 590.14200589 -684.817557 584.37388086 -679.89648438 578.58398438 C-675.1773039 573.02931966 -670.47174951 567.46940075 -665.875 561.8125 C-661.91741812 556.94870975 -657.84707554 552.19118769 -653.75415039 547.44165039 C-650.72304711 543.91701081 -647.74264684 540.35960118 -644.8125 536.75 C-641.38041987 532.5220752 -637.86698829 528.3747211 -634.3125 524.25 C-629.99077137 519.23408311 -625.75770804 514.15824701 -621.58203125 509.01953125 C-616.76561061 503.14200589 -611.817557 497.37388086 -606.89648438 491.58398438 C-602.1773039 486.02931966 -597.47174951 480.46940075 -592.875 474.8125 C-588.91741812 469.94870975 -584.84707554 465.19118769 -580.75415039 460.44165039 C-577.72304711 456.91701081 -574.74264684 453.35960118 -571.8125 449.75 C-568.38041987 445.5220752 -564.86698829 441.3747211 -561.3125 437.25 C-556.99077137 432.23408311 -552.75770804 427.15824701 -548.58203125 422.01953125 C-543.76561061 416.14200589 -538.817557 410.37388086 -533.89648438 404.58398438 C-529.1773039 399.02931966 -524.47174951 393.46940075 -519.875 387.8125 C-515.91741812 382.94870975 -511.84707554 378.19118769 -507.75415039 373.44165039 C-504.72304711 369.91701081 -501.74264684 366.35960118 -498.8125 362.75 C-494.8787143 357.90403211 -490.82802241 353.16901472 -486.75390625 348.44140625 C-483.72291716 344.91682097 -480.74257419 341.35951168 -477.8125 337.75 C-474.38041987 333.5220752 -470.86698829 329.3747211 -467.3125 325.25 C-462.99077137 320.23408311 -458.75770804 315.15824701 -454.58203125 310.01953125 C-449.76561061 304.14200589 -444.817557 298.37388086 -439.89648438 292.58398438 C-435.1773039 287.02931966 -430.47174951 281.46940075 -425.875 275.8125 C-421.91741812 270.94870975 -417.84707554 266.19118769 -413.75415039 261.44165039 C-410.72304711 257.91701081 -407.74264684 254.35960118 -404.8125 250.75 C-401.38041987 246.5220752 -397.86698829 242.3747211 -394.3125 238.25 C-389.99077137 233.23408311 -385.75770804 228.15824701 -381.58203125 223.01953125 C-376.76561061 217.14200589 -371.817557 211.37388086 -366.89648438 205.58398438 C-362.1773039 200.02931966 -357.47174951 194.46940075 -352.875 188.8125 C-348.91741812 183.94870975 -344.84707554 179.19118769 -340.75415039 174.44165039 C-337.72304711 170.91701081 -334.74264684 167.35960118 -331.8125 163.75 C-326.86331101 157.65799827 -321.75451058 151.70785611 -316.62402344 145.76855469 C-315.5519208 144.5272147 -314.48259096 143.28348042 -313.4140625 142.0390625 C-302.87844455 129.85886028 -291.90213759 117.67203037 -279.625 107.2265625 C-277.79066646 105.65870309 -275.98538617 104.06985345 -274.1875 102.4609375 C-199.39145271 35.92832931 -99.69691533 0.06532638 0 0 Z " fill="#00BEC8" transform="translate(1497.3125,49.75)"/>
<path d="M0 0 C3.14545714 0.58878371 4.91143821 1.49573471 7.28515625 3.625 C8.19599976 4.43046265 8.19599976 4.43046265 9.12524414 5.25219727 C9.76453857 5.82897217 10.40383301 6.40574707 11.0625 7 C12.4156065 8.19781327 13.76977893 9.39442346 15.125 10.58984375 C15.78757812 11.17620605 16.45015625 11.76256836 17.1328125 12.36669922 C19.56217771 14.49175849 22.05214505 16.53404354 24.5625 18.5625 C28.77198519 21.97136988 32.89760971 25.46399068 37 29 C41.124643 32.55457492 45.27207904 36.06792298 49.5 39.5 C54.34596789 43.4337857 59.08098528 47.48447759 63.80859375 51.55859375 C67.33317903 54.58958284 70.89048832 57.56992581 74.5 60.5 C78.7279248 63.93208013 82.8752789 67.44551171 87 71 C92.01591689 75.32172863 97.09175299 79.55479196 102.23046875 83.73046875 C108.10799411 88.54688939 113.87611914 93.494943 119.66601562 98.41601562 C125.22068034 103.1351961 130.78059925 107.84075049 136.4375 112.4375 C141.30129025 116.39508188 146.05881231 120.46542446 150.80834961 124.55834961 C154.33298919 127.58945289 157.89039882 130.56985316 161.5 133.5 C165.7279248 136.93208013 169.8752789 140.44551171 174 144 C179.01591689 148.32172863 184.09175299 152.55479196 189.23046875 156.73046875 C195.10799411 161.54688939 200.87611914 166.494943 206.66601562 171.41601562 C212.22068034 176.1351961 217.78059925 180.84075049 223.4375 185.4375 C228.30129025 189.39508188 233.05881231 193.46542446 237.80834961 197.55834961 C241.33298919 200.58945289 244.89039882 203.56985316 248.5 206.5 C252.7279248 209.93208013 256.8752789 213.44551171 261 217 C266.01591689 221.32172863 271.09175299 225.55479196 276.23046875 229.73046875 C279.3042092 232.2492885 282.34375584 234.80534601 285.375 237.375 C285.91108887 237.82931396 286.44717773 238.28362793 286.99951172 238.75170898 C289.88510413 241.1996862 292.7659346 243.65317695 295.64453125 246.109375 C296.53422607 246.86661865 296.53422607 246.86661865 297.44189453 247.63916016 C298.58368728 248.61104137 299.72404812 249.58460797 300.86279297 250.56005859 C303.75345812 253.03901447 303.75345812 253.03901447 307 255 C305.71076019 257.78823237 304.31380469 259.98996602 302.27734375 262.28515625 C301.47671509 263.19599976 301.47671509 263.19599976 300.65991211 264.12524414 C300.09151611 264.76453857 299.52312012 265.40383301 298.9375 266.0625 C297.74880878 267.41562113 296.56131318 268.7697935 295.375 270.125 C294.79492188 270.78757812 294.21484375 271.45015625 293.6171875 272.1328125 C291.50686101 274.56937304 289.46557686 277.05722858 287.4375 279.5625 C284.02862853 283.77198715 280.53596636 287.89757094 277 292 C272.67821817 297.01586975 268.44520648 302.0917549 264.26953125 307.23046875 C259.45311061 313.10799411 254.505057 318.87611914 249.58398438 324.66601562 C244.8648039 330.22068034 240.15924951 335.78059925 235.5625 341.4375 C231.60491812 346.30129025 227.53457554 351.05881231 223.44165039 355.80834961 C220.41054711 359.33298919 217.43014684 362.89039882 214.5 366.5 C211.06791987 370.7279248 207.55448829 374.8752789 204 379 C199.67827137 384.01591689 195.44520804 389.09175299 191.26953125 394.23046875 C186.45311061 400.10799411 181.505057 405.87611914 176.58398438 411.66601562 C171.8648039 417.22068034 167.15924951 422.78059925 162.5625 428.4375 C158.60491812 433.30129025 154.53457554 438.05881231 150.44165039 442.80834961 C147.41054711 446.33298919 144.43014684 449.89039882 141.5 453.5 C137.5662143 458.34596789 133.51552241 463.08098528 129.44140625 467.80859375 C126.41041716 471.33317903 123.43007419 474.89048832 120.5 478.5 C117.06791987 482.7279248 113.55448829 486.8752789 110 491 C105.67827137 496.01591689 101.44520804 501.09175299 97.26953125 506.23046875 C94.75070828 509.30421313 92.19449072 512.34361381 89.625 515.375 C89.16561035 515.91761475 88.7062207 516.46022949 88.23291016 517.01928711 C85.87764959 519.79773932 83.51336379 522.56794086 81.13671875 525.328125 C68.92316269 538.31761506 68.92316269 538.31761506 62.625 554.3125 C63.70499601 564.93246081 71.33003607 570.86198734 79.125 577.25 C80.06859375 578.01054688 81.0121875 578.77109375 81.984375 579.5546875 C85.15002159 582.12164963 88.26834465 584.73732653 91.375 587.375 C91.91705078 587.83471191 92.45910156 588.29442383 93.01757812 588.76806641 C95.23474418 590.64951635 97.45033494 592.53281692 99.66601562 594.41601562 C105.22068034 599.1351961 110.78059925 603.84075049 116.4375 608.4375 C121.30049424 612.39443418 126.05700203 616.46435942 130.80615234 620.55615234 C135.22308718 624.35401501 139.70953997 628.05680041 144.23046875 631.73046875 C150.10799411 636.54688939 155.87611914 641.494943 161.66601562 646.41601562 C167.22068034 651.1351961 172.78059925 655.84075049 178.4375 660.4375 C183.30129025 664.39508188 188.05881231 668.46542446 192.80834961 672.55834961 C196.33298919 675.58945289 199.89039882 678.56985316 203.5 681.5 C207.7279248 684.93208013 211.8752789 688.44551171 216 692 C221.01591689 696.32172863 226.09175299 700.55479196 231.23046875 704.73046875 C237.10799411 709.54688939 242.87611914 714.494943 248.66601562 719.41601562 C254.22068034 724.1351961 259.78059925 728.84075049 265.4375 733.4375 C270.30129025 737.39508188 275.05881231 741.46542446 279.80834961 745.55834961 C283.33298919 748.58945289 286.89039882 751.56985316 290.5 754.5 C294.7279248 757.93208013 298.8752789 761.44551171 303 765 C308.01591689 769.32172863 313.09175299 773.55479196 318.23046875 777.73046875 C324.10799411 782.54688939 329.87611914 787.494943 335.66601562 792.41601562 C341.22068034 797.1351961 346.78059925 801.84075049 352.4375 806.4375 C357.30129025 810.39508188 362.05881231 814.46542446 366.80834961 818.55834961 C370.33298919 821.58945289 373.89039882 824.56985316 377.5 827.5 C382.34596789 831.4337857 387.08098528 835.48447759 391.80859375 839.55859375 C395.33317903 842.58958284 398.89048832 845.56992581 402.5 848.5 C406.7279248 851.93208013 410.8752789 855.44551171 415 859 C420.01591689 863.32172863 425.09175299 867.55479196 430.23046875 871.73046875 C436.10799411 876.54688939 441.87611914 881.494943 447.66601562 886.41601562 C453.22068034 891.1351961 458.78059925 895.84075049 464.4375 900.4375 C469.30129025 904.39508188 474.05881231 908.46542446 478.80834961 912.55834961 C482.33298919 915.58945289 485.89039882 918.56985316 489.5 921.5 C493.7279248 924.93208013 497.8752789 928.44551171 502 932 C507.01591689 936.32172863 512.09175299 940.55479196 517.23046875 944.73046875 C523.10799411 949.54688939 528.87611914 954.494943 534.66601562 959.41601562 C540.22068034 964.1351961 545.78059925 968.84075049 551.4375 973.4375 C556.30129025 977.39508188 561.05881231 981.46542446 565.80834961 985.55834961 C569.33298919 988.58945289 572.89039882 991.56985316 576.5 994.5 C580.7279248 997.93208013 584.8752789 1001.44551171 589 1005 C594.01591689 1009.32172863 599.09175299 1013.55479196 604.23046875 1017.73046875 C610.10799411 1022.54688939 615.87611914 1027.494943 621.66601562 1032.41601562 C627.22068034 1037.1351961 632.78059925 1041.84075049 638.4375 1046.4375 C643.30129025 1050.39508188 648.05881231 1054.46542446 652.80834961 1058.55834961 C656.33298919 1061.58945289 659.89039882 1064.56985316 663.5 1067.5 C667.7279248 1070.93208013 671.8752789 1074.44551171 676 1078 C681.01591689 1082.32172863 686.09175299 1086.55479196 691.23046875 1090.73046875 C697.10799411 1095.54688939 702.87611914 1100.494943 708.66601562 1105.41601562 C714.22068034 1110.1351961 719.78059925 1114.84075049 725.4375 1119.4375 C730.30129025 1123.39508188 735.05881231 1127.46542446 739.80834961 1131.55834961 C743.33298919 1134.58945289 746.89039882 1137.56985316 750.5 1140.5 C754.7279248 1143.93208013 758.8752789 1147.44551171 763 1151 C768.01591689 1155.32172863 773.09175299 1159.55479196 778.23046875 1163.73046875 C784.10799411 1168.54688939 789.87611914 1173.494943 795.66601562 1178.41601562 C801.22068034 1183.1351961 806.78059925 1187.84075049 812.4375 1192.4375 C817.30129025 1196.39508188 822.05881231 1200.46542446 826.80834961 1204.55834961 C830.33298919 1207.58945289 833.89039882 1210.56985316 837.5 1213.5 C841.7279248 1216.93208013 845.8752789 1220.44551171 850 1224 C855.01591689 1228.32172863 860.09175299 1232.55479196 865.23046875 1236.73046875 C869.97360968 1240.61730215 874.63892794 1244.5958661 879.31201172 1248.56640625 C882.18439057 1251.0058926 885.06098836 1253.44038966 887.9375 1255.875 C888.45683105 1256.31505371 888.97616211 1256.75510742 889.51123047 1257.20849609 C892.99308467 1260.15657812 896.49218773 1263.08292214 900 1266 C895.97775099 1271.54418107 891.68192724 1276.80234903 887.23876953 1282.01074219 C884.30368159 1285.45297062 881.41260849 1288.92409353 878.5625 1292.4375 C874.60491812 1297.30129025 870.53457554 1302.05881231 866.44165039 1306.80834961 C863.41054711 1310.33298919 860.43014684 1313.89039882 857.5 1317.5 C853.5662143 1322.34596789 849.51552241 1327.08098528 845.44140625 1331.80859375 C842.41041716 1335.33317903 839.43007419 1338.89048832 836.5 1342.5 C832.5662143 1347.34596789 828.51552241 1352.08098528 824.44140625 1356.80859375 C821.41041716 1360.33317903 818.43007419 1363.89048832 815.5 1367.5 C812.06791987 1371.7279248 808.55448829 1375.8752789 805 1380 C800.67827137 1385.01591689 796.44520804 1390.09175299 792.26953125 1395.23046875 C787.45311061 1401.10799411 782.505057 1406.87611914 777.58398438 1412.66601562 C772.8648039 1418.22068034 768.15924951 1423.78059925 763.5625 1429.4375 C759.60491812 1434.30129025 755.53457554 1439.05881231 751.44165039 1443.80834961 C748.41054711 1447.33298919 745.43014684 1450.89039882 742.5 1454.5 C739.06791987 1458.7279248 735.55448829 1462.8752789 732 1467 C727.67827137 1472.01591689 723.44520804 1477.09175299 719.26953125 1482.23046875 C714.45311061 1488.10799411 709.505057 1493.87611914 704.58398438 1499.66601562 C699.8648039 1505.22068034 695.15924951 1510.78059925 690.5625 1516.4375 C686.60491812 1521.30129025 682.53457554 1526.05881231 678.44165039 1530.80834961 C675.41054711 1534.33298919 672.43014684 1537.89039882 669.5 1541.5 C665.57473072 1546.33547665 661.53328769 1551.06064357 657.46777344 1555.77783203 C652.8830922 1561.10889109 648.41973664 1566.53113396 644 1572 C639.22014297 1568.97690513 635.04094623 1565.5593215 630.8125 1561.8125 C625.53161801 1557.18284496 620.19055053 1552.65742854 614.734375 1548.234375 C608.86299564 1543.43661929 603.11122698 1538.49430195 597.33398438 1533.58398438 C591.77931966 1528.8648039 586.21940075 1524.15924951 580.5625 1519.5625 C575.69870975 1515.60491812 570.94118769 1511.53457554 566.19165039 1507.44165039 C562.66701081 1504.41054711 559.10960118 1501.43014684 555.5 1498.5 C551.2720752 1495.06791987 547.1247211 1491.55448829 543 1488 C537.98408311 1483.67827137 532.90824701 1479.44520804 527.76953125 1475.26953125 C521.89200589 1470.45311061 516.12388086 1465.505057 510.33398438 1460.58398438 C504.77931966 1455.8648039 499.21940075 1451.15924951 493.5625 1446.5625 C488.69870975 1442.60491812 483.94118769 1438.53457554 479.19165039 1434.44165039 C475.66701081 1431.41054711 472.10960118 1428.43014684 468.5 1425.5 C464.2720752 1422.06791987 460.1247211 1418.55448829 456 1415 C450.98408311 1410.67827137 445.90824701 1406.44520804 440.76953125 1402.26953125 C434.89200589 1397.45311061 429.12388086 1392.505057 423.33398438 1387.58398438 C417.77931966 1382.8648039 412.21940075 1378.15924951 406.5625 1373.5625 C401.69870975 1369.60491812 396.94118769 1365.53457554 392.19165039 1361.44165039 C388.66701081 1358.41054711 385.10960118 1355.43014684 381.5 1352.5 C377.2720752 1349.06791987 373.1247211 1345.55448829 369 1342 C363.98408311 1337.67827137 358.90824701 1333.44520804 353.76953125 1329.26953125 C347.89200589 1324.45311061 342.12388086 1319.505057 336.33398438 1314.58398438 C330.77931966 1309.8648039 325.21940075 1305.15924951 319.5625 1300.5625 C314.69870975 1296.60491812 309.94118769 1292.53457554 305.19165039 1288.44165039 C301.66701081 1285.41054711 298.10960118 1282.43014684 294.5 1279.5 C290.2720752 1276.06791987 286.1247211 1272.55448829 282 1269 C276.98408311 1264.67827137 271.90824701 1260.44520804 266.76953125 1256.26953125 C260.89200589 1251.45311061 255.12388086 1246.505057 249.33398438 1241.58398438 C243.77931966 1236.8648039 238.21940075 1232.15924951 232.5625 1227.5625 C227.69870975 1223.60491812 222.94118769 1219.53457554 218.19165039 1215.44165039 C214.66701081 1212.41054711 211.10960118 1209.43014684 207.5 1206.5 C203.2720752 1203.06791987 199.1247211 1199.55448829 195 1196 C189.98408311 1191.67827137 184.90824701 1187.44520804 179.76953125 1183.26953125 C173.89200589 1178.45311061 168.12388086 1173.505057 162.33398438 1168.58398438 C156.77931966 1163.8648039 151.21940075 1159.15924951 145.5625 1154.5625 C140.69870975 1150.60491812 135.94118769 1146.53457554 131.19165039 1142.44165039 C127.66701081 1139.41054711 124.10960118 1136.43014684 120.5 1133.5 C116.2720752 1130.06791987 112.1247211 1126.55448829 108 1123 C102.98408311 1118.67827137 97.90824701 1114.44520804 92.76953125 1110.26953125 C86.89200589 1105.45311061 81.12388086 1100.505057 75.33398438 1095.58398438 C69.77931966 1090.8648039 64.21940075 1086.15924951 58.5625 1081.5625 C53.69870975 1077.60491812 48.94118769 1073.53457554 44.19165039 1069.44165039 C40.66701081 1066.41054711 37.10960118 1063.43014684 33.5 1060.5 C29.2720752 1057.06791987 25.1247211 1053.55448829 21 1050 C15.98408311 1045.67827137 10.90824701 1041.44520804 5.76953125 1037.26953125 C-0.10799411 1032.45311061 -5.87611914 1027.505057 -11.66601562 1022.58398438 C-17.22068034 1017.8648039 -22.78059925 1013.15924951 -28.4375 1008.5625 C-33.30129025 1004.60491812 -38.05881231 1000.53457554 -42.80834961 996.44165039 C-46.33298919 993.41054711 -49.89039882 990.43014684 -53.5 987.5 C-57.7279248 984.06791987 -61.8752789 980.55448829 -66 977 C-71.01591689 972.67827137 -76.09175299 968.44520804 -81.23046875 964.26953125 C-87.10799411 959.45311061 -92.87611914 954.505057 -98.66601562 949.58398438 C-104.22068034 944.8648039 -109.78059925 940.15924951 -115.4375 935.5625 C-120.30129025 931.60491812 -125.05881231 927.53457554 -129.80834961 923.44165039 C-133.33298919 920.41054711 -136.89039882 917.43014684 -140.5 914.5 C-145.34596789 910.5662143 -150.08098528 906.51552241 -154.80859375 902.44140625 C-158.33317903 899.41041716 -161.89048832 896.43007419 -165.5 893.5 C-170.34709543 889.565299 -175.08527224 885.51585373 -179.81079102 881.43701172 C-183.30185238 878.43104523 -186.83853762 875.50203085 -190.4375 872.625 C-200.69630316 864.27097462 -210.12940389 854.94959201 -219.5 845.625 C-220.14606201 844.98361084 -220.79212402 844.34222168 -221.45776367 843.68139648 C-225.83978214 839.28462948 -229.95598453 834.70775614 -234 830 C-234.845625 829.03578125 -235.69125 828.0715625 -236.5625 827.078125 C-253.37108715 807.57585401 -268.22872603 786.35102261 -281 764 C-281.44811035 763.21737793 -281.8962207 762.43475586 -282.35791016 761.62841797 C-334.95433545 669.09074788 -349.80344898 558.65080309 -321.74212646 441.10414124 C-303.56534971 375.8008056 -269.13075831 320.56901633 -225.58398438 269.33398438 C-220.8648039 263.77931966 -216.15924951 258.21940075 -211.5625 252.5625 C-207.60491812 247.69870975 -203.53457554 242.94118769 -199.44165039 238.19165039 C-196.41054711 234.66701081 -193.43014684 231.10960118 -190.5 227.5 C-187.06791987 223.2720752 -183.55448829 219.1247211 -180 215 C-175.67827137 209.98408311 -171.44520804 204.90824701 -167.26953125 199.76953125 C-162.45311061 193.89200589 -157.505057 188.12388086 -152.58398438 182.33398438 C-147.8648039 176.77931966 -143.15924951 171.21940075 -138.5625 165.5625 C-134.60491812 160.69870975 -130.53457554 155.94118769 -126.44165039 151.19165039 C-123.41054711 147.66701081 -120.43014684 144.10960118 -117.5 140.5 C-114.06791987 136.2720752 -110.55448829 132.1247211 -107 128 C-102.67827137 122.98408311 -98.44520804 117.90824701 -94.26953125 112.76953125 C-89.45311061 106.89200589 -84.505057 101.12388086 -79.58398438 95.33398438 C-74.8648039 89.77931966 -70.15924951 84.21940075 -65.5625 78.5625 C-61.60491812 73.69870975 -57.53457554 68.94118769 -53.44165039 64.19165039 C-50.41054711 60.66701081 -47.43014684 57.10960118 -44.5 53.5 C-41.06791987 49.2720752 -37.55448829 45.1247211 -34 41 C-29.68185039 35.98823702 -25.45093314 30.91781618 -21.28125 25.78125 C-18.70157146 22.63616247 -16.07369666 19.53518912 -13.4375 16.4375 C-8.84943654 11.04336042 -4.38263028 5.56305219 0 0 Z " fill="#5A64DB" transform="translate(386,1142)"/>
<path d="M0 0 C4.77985703 3.02309487 8.95905377 6.4406785 13.1875 10.1875 C18.46838199 14.81715504 23.80944947 19.34257146 29.265625 23.765625 C35.13700436 28.56338071 40.88877302 33.50569805 46.66601562 38.41601562 C52.22068034 43.1351961 57.78059925 47.84075049 63.4375 52.4375 C68.30129025 56.39508188 73.05881231 60.46542446 77.80834961 64.55834961 C81.33298919 67.58945289 84.89039882 70.56985316 88.5 73.5 C92.7279248 76.93208013 96.8752789 80.44551171 101 84 C106.01591689 88.32172863 111.09175299 92.55479196 116.23046875 96.73046875 C122.10799411 101.54688939 127.87611914 106.494943 133.66601562 111.41601562 C139.22068034 116.1351961 144.78059925 120.84075049 150.4375 125.4375 C155.30129025 129.39508188 160.05881231 133.46542446 164.80834961 137.55834961 C168.33298919 140.58945289 171.89039882 143.56985316 175.5 146.5 C179.7279248 149.93208013 183.8752789 153.44551171 188 157 C193.01591689 161.32172863 198.09175299 165.55479196 203.23046875 169.73046875 C209.10799411 174.54688939 214.87611914 179.494943 220.66601562 184.41601562 C226.22068034 189.1351961 231.78059925 193.84075049 237.4375 198.4375 C242.30129025 202.39508188 247.05881231 206.46542446 251.80834961 210.55834961 C255.33298919 213.58945289 258.89039882 216.56985316 262.5 219.5 C266.7279248 222.93208013 270.8752789 226.44551171 275 230 C280.01591689 234.32172863 285.09175299 238.55479196 290.23046875 242.73046875 C296.10799411 247.54688939 301.87611914 252.494943 307.66601562 257.41601562 C313.22068034 262.1351961 318.78059925 266.84075049 324.4375 271.4375 C329.30129025 275.39508188 334.05881231 279.46542446 338.80834961 283.55834961 C342.33298919 286.58945289 345.89039882 289.56985316 349.5 292.5 C353.7279248 295.93208013 357.8752789 299.44551171 362 303 C367.01591689 307.32172863 372.09175299 311.55479196 377.23046875 315.73046875 C383.10799411 320.54688939 388.87611914 325.494943 394.66601562 330.41601562 C400.22068034 335.1351961 405.78059925 339.84075049 411.4375 344.4375 C416.30129025 348.39508188 421.05881231 352.46542446 425.80834961 356.55834961 C429.33298919 359.58945289 432.89039882 362.56985316 436.5 365.5 C440.7279248 368.93208013 444.8752789 372.44551171 449 376 C454.01591689 380.32172863 459.09175299 384.55479196 464.23046875 388.73046875 C470.10799411 393.54688939 475.87611914 398.494943 481.66601562 403.41601562 C487.22068034 408.1351961 492.78059925 412.84075049 498.4375 417.4375 C503.30129025 421.39508188 508.05881231 425.46542446 512.80834961 429.55834961 C516.33298919 432.58945289 519.89039882 435.56985316 523.5 438.5 C527.7279248 441.93208013 531.8752789 445.44551171 536 449 C541.01591689 453.32172863 546.09175299 457.55479196 551.23046875 461.73046875 C557.10799411 466.54688939 562.87611914 471.494943 568.66601562 476.41601562 C574.22068034 481.1351961 579.78059925 485.84075049 585.4375 490.4375 C590.30129025 494.39508188 595.05881231 498.46542446 599.80834961 502.55834961 C603.33298919 505.58945289 606.89039882 508.56985316 610.5 511.5 C614.7279248 514.93208013 618.8752789 518.44551171 623 522 C628.01591689 526.32172863 633.09175299 530.55479196 638.23046875 534.73046875 C644.10799411 539.54688939 649.87611914 544.494943 655.66601562 549.41601562 C661.22068034 554.1351961 666.78059925 558.84075049 672.4375 563.4375 C677.30129025 567.39508188 682.05881231 571.46542446 686.80834961 575.55834961 C690.33298919 578.58945289 693.89039882 581.56985316 697.5 584.5 C702.34596789 588.4337857 707.08098528 592.48447759 711.80859375 596.55859375 C715.33317903 599.58958284 718.89048832 602.56992581 722.5 605.5 C726.7279248 608.93208013 730.8752789 612.44551171 735 616 C740.01591689 620.32172863 745.09175299 624.55479196 750.23046875 628.73046875 C756.10799411 633.54688939 761.87611914 638.494943 767.66601562 643.41601562 C773.22068034 648.1351961 778.78059925 652.84075049 784.4375 657.4375 C789.30129025 661.39508188 794.05881231 665.46542446 798.80834961 669.55834961 C802.33298919 672.58945289 805.89039882 675.56985316 809.5 678.5 C814.34709543 682.434701 819.08527224 686.48414627 823.81079102 690.56298828 C827.30185238 693.56895477 830.83853762 696.49796915 834.4375 699.375 C844.69630316 707.72902538 854.12940389 717.05040799 863.5 726.375 C864.14606201 727.01638916 864.79212402 727.65777832 865.45776367 728.31860352 C869.83978214 732.71537052 873.95598453 737.29224386 878 742 C878.845625 742.96421875 879.69125 743.9284375 880.5625 744.921875 C897.37108715 764.42414599 912.22872603 785.64897739 925 808 C925.67216553 809.17393311 925.67216553 809.17393311 926.35791016 810.37158203 C951.3724801 854.38198783 967.57466346 901.88704737 975.75 951.8125 C975.94867676 953.01398682 976.14735352 954.21547363 976.35205078 955.45336914 C979.54871571 975.80985196 980.40757526 995.97033151 980.375 1016.5625 C980.37418427 1018.50763489 980.37418427 1018.50763489 980.37335205 1020.49206543 C980.33279734 1041.58375821 979.41615816 1062.18286688 976 1083 C975.89109436 1083.66849976 975.78218872 1084.33699951 975.66998291 1085.02575684 C961.95553313 1168.55990414 923.80434529 1238.87295651 869.58398438 1302.66601562 C864.8648039 1308.22068034 860.15924951 1313.78059925 855.5625 1319.4375 C851.60491812 1324.30129025 847.53457554 1329.05881231 843.44165039 1333.80834961 C840.41054711 1337.33298919 837.43014684 1340.89039882 834.5 1344.5 C831.06791987 1348.7279248 827.55448829 1352.8752789 824 1357 C819.67827137 1362.01591689 815.44520804 1367.09175299 811.26953125 1372.23046875 C806.45311061 1378.10799411 801.505057 1383.87611914 796.58398438 1389.66601562 C791.8648039 1395.22068034 787.15924951 1400.78059925 782.5625 1406.4375 C778.60491812 1411.30129025 774.53457554 1416.05881231 770.44165039 1420.80834961 C767.41054711 1424.33298919 764.43014684 1427.89039882 761.5 1431.5 C758.06791987 1435.7279248 754.55448829 1439.8752789 751 1444 C746.67827137 1449.01591689 742.44520804 1454.09175299 738.26953125 1459.23046875 C733.45311061 1465.10799411 728.505057 1470.87611914 723.58398438 1476.66601562 C718.8648039 1482.22068034 714.15924951 1487.78059925 709.5625 1493.4375 C705.60491812 1498.30129025 701.53457554 1503.05881231 697.44165039 1507.80834961 C694.41054711 1511.33298919 691.43014684 1514.89039882 688.5 1518.5 C685.06791987 1522.7279248 681.55448829 1526.8752789 678 1531 C673.68185039 1536.01176298 669.45093314 1541.08218382 665.28125 1546.21875 C662.70157146 1549.36383753 660.07369666 1552.46481088 657.4375 1555.5625 C652.84943654 1560.95663958 648.38263028 1566.43694781 644 1572 C640.85454286 1571.41121629 639.08856179 1570.50426529 636.71484375 1568.375 C635.80400024 1567.56953735 635.80400024 1567.56953735 634.87475586 1566.74780273 C634.23546143 1566.17102783 633.59616699 1565.59425293 632.9375 1565 C631.5843935 1563.80218673 630.23022107 1562.60557654 628.875 1561.41015625 C627.88113281 1560.53061279 627.88113281 1560.53061279 626.8671875 1559.63330078 C624.43782229 1557.50824151 621.94785495 1555.46595646 619.4375 1553.4375 C615.22801481 1550.02863012 611.10239029 1546.53600932 607 1543 C602.875357 1539.44542508 598.72792096 1535.93207702 594.5 1532.5 C589.65403211 1528.5662143 584.91901472 1524.51552241 580.19140625 1520.44140625 C576.66682097 1517.41041716 573.10951168 1514.43007419 569.5 1511.5 C565.2720752 1508.06791987 561.1247211 1504.55448829 557 1501 C551.98408311 1496.67827137 546.90824701 1492.44520804 541.76953125 1488.26953125 C535.89200589 1483.45311061 530.12388086 1478.505057 524.33398438 1473.58398438 C518.77931966 1468.8648039 513.21940075 1464.15924951 507.5625 1459.5625 C502.69870975 1455.60491812 497.94118769 1451.53457554 493.19165039 1447.44165039 C489.66701081 1444.41054711 486.10960118 1441.43014684 482.5 1438.5 C478.2720752 1435.06791987 474.1247211 1431.55448829 470 1428 C464.98408311 1423.67827137 459.90824701 1419.44520804 454.76953125 1415.26953125 C448.89200589 1410.45311061 443.12388086 1405.505057 437.33398438 1400.58398438 C431.77931966 1395.8648039 426.21940075 1391.15924951 420.5625 1386.5625 C415.69870975 1382.60491812 410.94118769 1378.53457554 406.19165039 1374.44165039 C402.66701081 1371.41054711 399.10960118 1368.43014684 395.5 1365.5 C391.2720752 1362.06791987 387.1247211 1358.55448829 383 1355 C377.98408311 1350.67827137 372.90824701 1346.44520804 367.76953125 1342.26953125 C364.6957908 1339.7507115 361.65624416 1337.19465399 358.625 1334.625 C358.08891113 1334.17068604 357.55282227 1333.71637207 357.00048828 1333.24829102 C354.11489587 1330.8003138 351.2340654 1328.34682305 348.35546875 1325.890625 C347.76233887 1325.3857959 347.16920898 1324.8809668 346.55810547 1324.36083984 C345.41631272 1323.38895863 344.27595188 1322.41539203 343.13720703 1321.43994141 C340.24654188 1318.96098553 340.24654188 1318.96098553 337 1317 C338.28923981 1314.21176763 339.68619531 1312.01003398 341.72265625 1309.71484375 C342.52328491 1308.80400024 342.52328491 1308.80400024 343.34008789 1307.87475586 C344.19268188 1306.91581421 344.19268188 1306.91581421 345.0625 1305.9375 C346.25119122 1304.58437887 347.43868682 1303.2302065 348.625 1301.875 C349.49511719 1300.88113281 349.49511719 1300.88113281 350.3828125 1299.8671875 C352.49313899 1297.43062696 354.53442314 1294.94277142 356.5625 1292.4375 C359.97137147 1288.22801285 363.46403364 1284.10242906 367 1280 C371.32178183 1274.98413025 375.55479352 1269.9082451 379.73046875 1264.76953125 C384.54688939 1258.89200589 389.494943 1253.12388086 394.41601562 1247.33398438 C399.1351961 1241.77931966 403.84075049 1236.21940075 408.4375 1230.5625 C412.39508188 1225.69870975 416.46542446 1220.94118769 420.55834961 1216.19165039 C423.58945289 1212.66701081 426.56985316 1209.10960118 429.5 1205.5 C432.93208013 1201.2720752 436.44551171 1197.1247211 440 1193 C444.32172863 1187.98408311 448.55479196 1182.90824701 452.73046875 1177.76953125 C457.54688939 1171.89200589 462.494943 1166.12388086 467.41601562 1160.33398438 C472.1351961 1154.77931966 476.84075049 1149.21940075 481.4375 1143.5625 C485.39508188 1138.69870975 489.46542446 1133.94118769 493.55834961 1129.19165039 C496.58945289 1125.66701081 499.56985316 1122.10960118 502.5 1118.5 C506.4337857 1113.65403211 510.48447759 1108.91901472 514.55859375 1104.19140625 C517.58958284 1100.66682097 520.56992581 1097.10951168 523.5 1093.5 C526.93208013 1089.2720752 530.44551171 1085.1247211 534 1081 C538.32172863 1075.98408311 542.55479196 1070.90824701 546.73046875 1065.76953125 C549.24929172 1062.69578687 551.80550928 1059.65638619 554.375 1056.625 C554.83438965 1056.08238525 555.2937793 1055.53977051 555.76708984 1054.98071289 C558.12235041 1052.20226068 560.48663621 1049.43205914 562.86328125 1046.671875 C575.07683731 1033.68238494 575.07683731 1033.68238494 581.375 1017.6875 C580.29500399 1007.06753919 572.66996393 1001.13801266 564.875 994.75 C563.93140625 993.98945312 562.9878125 993.22890625 562.015625 992.4453125 C558.84997841 989.87835037 555.73165535 987.26267347 552.625 984.625 C552.08294922 984.16528809 551.54089844 983.70557617 550.98242188 983.23193359 C548.76525582 981.35048365 546.54966506 979.46718308 544.33398438 977.58398438 C538.77931966 972.8648039 533.21940075 968.15924951 527.5625 963.5625 C522.69950576 959.60556582 517.94299797 955.53564058 513.19384766 951.44384766 C508.77691282 947.64598499 504.29046003 943.94319959 499.76953125 940.26953125 C493.89200589 935.45311061 488.12388086 930.505057 482.33398438 925.58398438 C476.77931966 920.8648039 471.21940075 916.15924951 465.5625 911.5625 C460.69870975 907.60491812 455.94118769 903.53457554 451.19165039 899.44165039 C447.66701081 896.41054711 444.10960118 893.43014684 440.5 890.5 C436.2720752 887.06791987 432.1247211 883.55448829 428 880 C422.98408311 875.67827137 417.90824701 871.44520804 412.76953125 867.26953125 C406.89200589 862.45311061 401.12388086 857.505057 395.33398438 852.58398438 C389.77931966 847.8648039 384.21940075 843.15924951 378.5625 838.5625 C373.69870975 834.60491812 368.94118769 830.53457554 364.19165039 826.44165039 C360.66701081 823.41054711 357.10960118 820.43014684 353.5 817.5 C348.65403211 813.5662143 343.91901472 809.51552241 339.19140625 805.44140625 C335.66682097 802.41041716 332.10951168 799.43007419 328.5 796.5 C324.2720752 793.06791987 320.1247211 789.55448829 316 786 C310.98408311 781.67827137 305.90824701 777.44520804 300.76953125 773.26953125 C294.89200589 768.45311061 289.12388086 763.505057 283.33398438 758.58398438 C277.77931966 753.8648039 272.21940075 749.15924951 266.5625 744.5625 C261.69870975 740.60491812 256.94118769 736.53457554 252.19165039 732.44165039 C248.66701081 729.41054711 245.10960118 726.43014684 241.5 723.5 C237.2720752 720.06791987 233.1247211 716.55448829 229 713 C223.98408311 708.67827137 218.90824701 704.44520804 213.76953125 700.26953125 C207.89200589 695.45311061 202.12388086 690.505057 196.33398438 685.58398438 C190.77931966 680.8648039 185.21940075 676.15924951 179.5625 671.5625 C174.69870975 667.60491812 169.94118769 663.53457554 165.19165039 659.44165039 C161.66701081 656.41054711 158.10960118 653.43014684 154.5 650.5 C150.2720752 647.06791987 146.1247211 643.55448829 142 640 C136.98408311 635.67827137 131.90824701 631.44520804 126.76953125 627.26953125 C120.89200589 622.45311061 115.12388086 617.505057 109.33398438 612.58398438 C103.77931966 607.8648039 98.21940075 603.15924951 92.5625 598.5625 C87.69870975 594.60491812 82.94118769 590.53457554 78.19165039 586.44165039 C74.66701081 583.41054711 71.10960118 580.43014684 67.5 577.5 C63.2720752 574.06791987 59.1247211 570.55448829 55 567 C49.98408311 562.67827137 44.90824701 558.44520804 39.76953125 554.26953125 C33.89200589 549.45311061 28.12388086 544.505057 22.33398438 539.58398438 C16.77931966 534.8648039 11.21940075 530.15924951 5.5625 525.5625 C0.69870975 521.60491812 -4.05881231 517.53457554 -8.80834961 513.44165039 C-12.33298919 510.41054711 -15.89039882 507.43014684 -19.5 504.5 C-23.7279248 501.06791987 -27.8752789 497.55448829 -32 494 C-37.01591689 489.67827137 -42.09175299 485.44520804 -47.23046875 481.26953125 C-53.10799411 476.45311061 -58.87611914 471.505057 -64.66601562 466.58398438 C-70.22068034 461.8648039 -75.78059925 457.15924951 -81.4375 452.5625 C-86.30129025 448.60491812 -91.05881231 444.53457554 -95.80834961 440.44165039 C-99.33298919 437.41054711 -102.89039882 434.43014684 -106.5 431.5 C-110.7279248 428.06791987 -114.8752789 424.55448829 -119 421 C-124.01591689 416.67827137 -129.09175299 412.44520804 -134.23046875 408.26953125 C-140.10799411 403.45311061 -145.87611914 398.505057 -151.66601562 393.58398438 C-157.22068034 388.8648039 -162.78059925 384.15924951 -168.4375 379.5625 C-173.30129025 375.60491812 -178.05881231 371.53457554 -182.80834961 367.44165039 C-186.33298919 364.41054711 -189.89039882 361.43014684 -193.5 358.5 C-197.7279248 355.06791987 -201.8752789 351.55448829 -206 348 C-211.01591689 343.67827137 -216.09175299 339.44520804 -221.23046875 335.26953125 C-225.97360968 331.38269785 -230.63892794 327.4041339 -235.31201172 323.43359375 C-238.18439057 320.9941074 -241.06098836 318.55961034 -243.9375 316.125 C-244.45683105 315.68494629 -244.97616211 315.24489258 -245.51123047 314.79150391 C-248.99308467 311.84342188 -252.49218773 308.91707786 -256 306 C-251.97775099 300.45581893 -247.68192724 295.19765097 -243.23876953 289.98925781 C-240.30368159 286.54702938 -237.41260849 283.07590647 -234.5625 279.5625 C-230.60491812 274.69870975 -226.53457554 269.94118769 -222.44165039 265.19165039 C-219.41054711 261.66701081 -216.43014684 258.10960118 -213.5 254.5 C-209.5662143 249.65403211 -205.51552241 244.91901472 -201.44140625 240.19140625 C-198.41041716 236.66682097 -195.43007419 233.10951168 -192.5 229.5 C-188.5662143 224.65403211 -184.51552241 219.91901472 -180.44140625 215.19140625 C-177.41041716 211.66682097 -174.43007419 208.10951168 -171.5 204.5 C-168.06791987 200.2720752 -164.55448829 196.1247211 -161 192 C-156.67827137 186.98408311 -152.44520804 181.90824701 -148.26953125 176.76953125 C-143.45311061 170.89200589 -138.505057 165.12388086 -133.58398438 159.33398438 C-128.8648039 153.77931966 -124.15924951 148.21940075 -119.5625 142.5625 C-115.60491812 137.69870975 -111.53457554 132.94118769 -107.44165039 128.19165039 C-104.41054711 124.66701081 -101.43014684 121.10960118 -98.5 117.5 C-95.06791987 113.2720752 -91.55448829 109.1247211 -88 105 C-83.67827137 99.98408311 -79.44520804 94.90824701 -75.26953125 89.76953125 C-70.45311061 83.89200589 -65.505057 78.12388086 -60.58398438 72.33398438 C-55.8648039 66.77931966 -51.15924951 61.21940075 -46.5625 55.5625 C-42.60491812 50.69870975 -38.53457554 45.94118769 -34.44165039 41.19165039 C-31.41054711 37.66701081 -28.43014684 34.10960118 -25.5 30.5 C-21.57473072 25.66452335 -17.53328769 20.93935643 -13.46777344 16.22216797 C-8.8830922 10.89110891 -4.41973664 5.46886604 0 0 Z " fill="#FFCC00" transform="translate(2170,486)"/>
<path d="M0 0 C4.58084179 2.49072386 8.25054798 5.68599086 12.125 9.125 C17.42600965 13.77674868 22.78635685 18.32385141 28.265625 22.765625 C34.13700436 27.56338071 39.88877302 32.50569805 45.66601562 37.41601562 C51.22068034 42.1351961 56.78059925 46.84075049 62.4375 51.4375 C67.30129025 55.39508188 72.05881231 59.46542446 76.80834961 63.55834961 C80.33298919 66.58945289 83.89039882 69.56985316 87.5 72.5 C91.7279248 75.93208013 95.8752789 79.44551171 100 83 C105.01591689 87.32172863 110.09175299 91.55479196 115.23046875 95.73046875 C121.10799411 100.54688939 126.87611914 105.494943 132.66601562 110.41601562 C138.22068034 115.1351961 143.78059925 119.84075049 149.4375 124.4375 C154.30129025 128.39508188 159.05881231 132.46542446 163.80834961 136.55834961 C167.33298919 139.58945289 170.89039882 142.56985316 174.5 145.5 C179.34596789 149.4337857 184.08098528 153.48447759 188.80859375 157.55859375 C192.33317903 160.58958284 195.89048832 163.56992581 199.5 166.5 C203.7279248 169.93208013 207.8752789 173.44551171 212 177 C217.01591689 181.32172863 222.09175299 185.55479196 227.23046875 189.73046875 C233.10799411 194.54688939 238.87611914 199.494943 244.66601562 204.41601562 C250.22068034 209.1351961 255.78059925 213.84075049 261.4375 218.4375 C266.30129025 222.39508188 271.05881231 226.46542446 275.80834961 230.55834961 C279.33298919 233.58945289 282.89039882 236.56985316 286.5 239.5 C290.7279248 242.93208013 294.8752789 246.44551171 299 250 C304.01591689 254.32172863 309.09175299 258.55479196 314.23046875 262.73046875 C320.10799411 267.54688939 325.87611914 272.494943 331.66601562 277.41601562 C337.22068034 282.1351961 342.78059925 286.84075049 348.4375 291.4375 C353.30129025 295.39508188 358.05881231 299.46542446 362.80834961 303.55834961 C366.33298919 306.58945289 369.89039882 309.56985316 373.5 312.5 C377.7279248 315.93208013 381.8752789 319.44551171 386 323 C391.01591689 327.32172863 396.09175299 331.55479196 401.23046875 335.73046875 C407.10799411 340.54688939 412.87611914 345.494943 418.66601562 350.41601562 C424.22068034 355.1351961 429.78059925 359.84075049 435.4375 364.4375 C440.30129025 368.39508188 445.05881231 372.46542446 449.80834961 376.55834961 C453.33298919 379.58945289 456.89039882 382.56985316 460.5 385.5 C464.7279248 388.93208013 468.8752789 392.44551171 473 396 C478.01591689 400.32172863 483.09175299 404.55479196 488.23046875 408.73046875 C494.10799411 413.54688939 499.87611914 418.494943 505.66601562 423.41601562 C511.22068034 428.1351961 516.78059925 432.84075049 522.4375 437.4375 C527.30129025 441.39508188 532.05881231 445.46542446 536.80834961 449.55834961 C540.33298919 452.58945289 543.89039882 455.56985316 547.5 458.5 C551.7279248 461.93208013 555.8752789 465.44551171 560 469 C565.01314773 473.31934272 570.08537515 477.55097277 575.22265625 481.72265625 C578.34396334 484.28204026 581.42451134 486.88592494 584.5 489.5 C590.27427261 494.40726989 596.11603189 499.2244347 602 504 C599.50927614 508.58084179 596.31400914 512.25054798 592.875 516.125 C588.22325132 521.42600965 583.67614859 526.78635685 579.234375 532.265625 C574.43661929 538.13700436 569.49430195 543.88877302 564.58398438 549.66601562 C559.8648039 555.22068034 555.15924951 560.78059925 550.5625 566.4375 C546.60491812 571.30129025 542.53457554 576.05881231 538.44165039 580.80834961 C535.41054711 584.33298919 532.43014684 587.89039882 529.5 591.5 C525.5662143 596.34596789 521.51552241 601.08098528 517.44140625 605.80859375 C514.41041716 609.33317903 511.43007419 612.89048832 508.5 616.5 C505.06791987 620.7279248 501.55448829 624.8752789 498 629 C493.67827137 634.01591689 489.44520804 639.09175299 485.26953125 644.23046875 C480.45311061 650.10799411 475.505057 655.87611914 470.58398438 661.66601562 C465.8648039 667.22068034 461.15924951 672.78059925 456.5625 678.4375 C452.60491812 683.30129025 448.53457554 688.05881231 444.44165039 692.80834961 C441.41054711 696.33298919 438.43014684 699.89039882 435.5 703.5 C432.06791987 707.7279248 428.55448829 711.8752789 425 716 C420.67827137 721.01591689 416.44520804 726.09175299 412.26953125 731.23046875 C407.45311061 737.10799411 402.505057 742.87611914 397.58398438 748.66601562 C392.8648039 754.22068034 388.15924951 759.78059925 383.5625 765.4375 C379.60491812 770.30129025 375.53457554 775.05881231 371.44165039 779.80834961 C368.41054711 783.33298919 365.43014684 786.89039882 362.5 790.5 C359.06791987 794.7279248 355.55448829 798.8752789 352 803 C347.67827137 808.01591689 343.44520804 813.09175299 339.26953125 818.23046875 C334.45311061 824.10799411 329.505057 829.87611914 324.58398438 835.66601562 C319.8648039 841.22068034 315.15924951 846.78059925 310.5625 852.4375 C306.60491812 857.30129025 302.53457554 862.05881231 298.44165039 866.80834961 C295.41054711 870.33298919 292.43014684 873.89039882 289.5 877.5 C286.06791987 881.7279248 282.55448829 885.8752789 279 890 C274.67827137 895.01591689 270.44520804 900.09175299 266.26953125 905.23046875 C261.45311061 911.10799411 256.505057 916.87611914 251.58398438 922.66601562 C246.8648039 928.22068034 242.15924951 933.78059925 237.5625 939.4375 C233.60491812 944.30129025 229.53457554 949.05881231 225.44165039 953.80834961 C222.41054711 957.33298919 219.43014684 960.89039882 216.5 964.5 C213.06791987 968.7279248 209.55448829 972.8752789 206 977 C201.67827137 982.01591689 197.44520804 987.09175299 193.26953125 992.23046875 C188.45311061 998.10799411 183.505057 1003.87611914 178.58398438 1009.66601562 C173.8648039 1015.22068034 169.15924951 1020.78059925 164.5625 1026.4375 C160.60491812 1031.30129025 156.53457554 1036.05881231 152.44165039 1040.80834961 C149.41054711 1044.33298919 146.43014684 1047.89039882 143.5 1051.5 C140.06791987 1055.7279248 136.55448829 1059.8752789 133 1064 C128.68065728 1069.01314773 124.44902723 1074.08537515 120.27734375 1079.22265625 C117.71795974 1082.34396334 115.11407506 1085.42451134 112.5 1088.5 C107.59273011 1094.27427261 102.7755653 1100.11603189 98 1106 C93.41915821 1103.50927614 89.74945202 1100.31400914 85.875 1096.875 C80.57399035 1092.22325132 75.21364315 1087.67614859 69.734375 1083.234375 C63.86299564 1078.43661929 58.11122698 1073.49430195 52.33398438 1068.58398438 C46.77931966 1063.8648039 41.21940075 1059.15924951 35.5625 1054.5625 C30.69870975 1050.60491812 25.94118769 1046.53457554 21.19165039 1042.44165039 C17.66701081 1039.41054711 14.10960118 1036.43014684 10.5 1033.5 C6.2720752 1030.06791987 2.1247211 1026.55448829 -2 1023 C-7.01591689 1018.67827137 -12.09175299 1014.44520804 -17.23046875 1010.26953125 C-23.10799411 1005.45311061 -28.87611914 1000.505057 -34.66601562 995.58398438 C-40.22068034 990.8648039 -45.78059925 986.15924951 -51.4375 981.5625 C-56.30129025 977.60491812 -61.05881231 973.53457554 -65.80834961 969.44165039 C-69.33298919 966.41054711 -72.89039882 963.43014684 -76.5 960.5 C-81.34596789 956.5662143 -86.08098528 952.51552241 -90.80859375 948.44140625 C-94.33317903 945.41041716 -97.89048832 942.43007419 -101.5 939.5 C-105.7279248 936.06791987 -109.8752789 932.55448829 -114 929 C-119.01591689 924.67827137 -124.09175299 920.44520804 -129.23046875 916.26953125 C-135.10799411 911.45311061 -140.87611914 906.505057 -146.66601562 901.58398438 C-152.22068034 896.8648039 -157.78059925 892.15924951 -163.4375 887.5625 C-168.30129025 883.60491812 -173.05881231 879.53457554 -177.80834961 875.44165039 C-181.33298919 872.41054711 -184.89039882 869.43014684 -188.5 866.5 C-192.7279248 863.06791987 -196.8752789 859.55448829 -201 856 C-206.01591689 851.67827137 -211.09175299 847.44520804 -216.23046875 843.26953125 C-222.10799411 838.45311061 -227.87611914 833.505057 -233.66601562 828.58398438 C-239.22068034 823.8648039 -244.78059925 819.15924951 -250.4375 814.5625 C-255.30129025 810.60491812 -260.05881231 806.53457554 -264.80834961 802.44165039 C-268.33298919 799.41054711 -271.89039882 796.43014684 -275.5 793.5 C-279.7279248 790.06791987 -283.8752789 786.55448829 -288 783 C-293.01591689 778.67827137 -298.09175299 774.44520804 -303.23046875 770.26953125 C-309.10799411 765.45311061 -314.87611914 760.505057 -320.66601562 755.58398438 C-326.22068034 750.8648039 -331.78059925 746.15924951 -337.4375 741.5625 C-342.30129025 737.60491812 -347.05881231 733.53457554 -351.80834961 729.44165039 C-355.33298919 726.41054711 -358.89039882 723.43014684 -362.5 720.5 C-366.7279248 717.06791987 -370.8752789 713.55448829 -375 710 C-380.01591689 705.67827137 -385.09175299 701.44520804 -390.23046875 697.26953125 C-396.10799411 692.45311061 -401.87611914 687.505057 -407.66601562 682.58398438 C-413.22068034 677.8648039 -418.78059925 673.15924951 -424.4375 668.5625 C-429.30129025 664.60491812 -434.05881231 660.53457554 -438.80834961 656.44165039 C-442.33298919 653.41054711 -445.89039882 650.43014684 -449.5 647.5 C-453.7279248 644.06791987 -457.8752789 640.55448829 -462 637 C-467.01314773 632.68065728 -472.08537515 628.44902723 -477.22265625 624.27734375 C-480.34396334 621.71795974 -483.42451134 619.11407506 -486.5 616.5 C-492.27427261 611.59273011 -498.11603189 606.7755653 -504 602 C-501.50927614 597.41915821 -498.31400914 593.74945202 -494.875 589.875 C-490.22325132 584.57399035 -485.67614859 579.21364315 -481.234375 573.734375 C-476.43661929 567.86299564 -471.49430195 562.11122698 -466.58398438 556.33398438 C-461.8648039 550.77931966 -457.15924951 545.21940075 -452.5625 539.5625 C-448.60491812 534.69870975 -444.53457554 529.94118769 -440.44165039 525.19165039 C-437.41054711 521.66701081 -434.43014684 518.10960118 -431.5 514.5 C-428.06791987 510.2720752 -424.55448829 506.1247211 -421 502 C-416.67827137 496.98408311 -412.44520804 491.90824701 -408.26953125 486.76953125 C-403.45311061 480.89200589 -398.505057 475.12388086 -393.58398438 469.33398438 C-388.8648039 463.77931966 -384.15924951 458.21940075 -379.5625 452.5625 C-375.60491812 447.69870975 -371.53457554 442.94118769 -367.44165039 438.19165039 C-364.41054711 434.66701081 -361.43014684 431.10960118 -358.5 427.5 C-355.06791987 423.2720752 -351.55448829 419.1247211 -348 415 C-343.67827137 409.98408311 -339.44520804 404.90824701 -335.26953125 399.76953125 C-330.45311061 393.89200589 -325.505057 388.12388086 -320.58398438 382.33398438 C-315.8648039 376.77931966 -311.15924951 371.21940075 -306.5625 365.5625 C-302.60491812 360.69870975 -298.53457554 355.94118769 -294.44165039 351.19165039 C-291.41054711 347.66701081 -288.43014684 344.10960118 -285.5 340.5 C-281.5662143 335.65403211 -277.51552241 330.91901472 -273.44140625 326.19140625 C-270.41041716 322.66682097 -267.43007419 319.10951168 -264.5 315.5 C-261.06791987 311.2720752 -257.55448829 307.1247211 -254 303 C-249.67827137 297.98408311 -245.44520804 292.90824701 -241.26953125 287.76953125 C-236.45311061 281.89200589 -231.505057 276.12388086 -226.58398438 270.33398438 C-221.8648039 264.77931966 -217.15924951 259.21940075 -212.5625 253.5625 C-208.60491812 248.69870975 -204.53457554 243.94118769 -200.44165039 239.19165039 C-197.41054711 235.66701081 -194.43014684 232.10960118 -191.5 228.5 C-188.06791987 224.2720752 -184.55448829 220.1247211 -181 216 C-176.67827137 210.98408311 -172.44520804 205.90824701 -168.26953125 200.76953125 C-163.45311061 194.89200589 -158.505057 189.12388086 -153.58398438 183.33398438 C-148.8648039 177.77931966 -144.15924951 172.21940075 -139.5625 166.5625 C-135.60491812 161.69870975 -131.53457554 156.94118769 -127.44165039 152.19165039 C-124.41054711 148.66701081 -121.43014684 145.10960118 -118.5 141.5 C-115.06791987 137.2720752 -111.55448829 133.1247211 -108 129 C-103.67827137 123.98408311 -99.44520804 118.90824701 -95.26953125 113.76953125 C-90.45311061 107.89200589 -85.505057 102.12388086 -80.58398438 96.33398438 C-75.8648039 90.77931966 -71.15924951 85.21940075 -66.5625 79.5625 C-62.60491812 74.69870975 -58.53457554 69.94118769 -54.44165039 65.19165039 C-51.41054711 61.66701081 -48.43014684 58.10960118 -45.5 54.5 C-42.06791987 50.2720752 -38.55448829 46.1247211 -35 42 C-30.68065728 36.98685227 -26.44902723 31.91462485 -22.27734375 26.77734375 C-19.71795974 23.65603666 -17.11407506 20.57548866 -14.5 17.5 C-9.59273011 11.72572739 -4.7755653 5.88396811 0 0 Z " fill="#000A37" transform="translate(1551,1047)"/>
</svg>
